<?xml version="1.0" standalone="no"?><!DOCTYPE svg PUBLIC "-//W3C//DTD SVG 1.1//EN" "http://www.w3.org/Graphics/SVG/1.1/DTD/svg11.dtd"><svg t="1683766817382" class="icon" viewBox="0 0 1024 1024" version="1.1" xmlns="http://www.w3.org/2000/svg" p-id="3585" xmlns:xlink="http://www.w3.org/1999/xlink" width="200" height="200"><path d="M1017.903123 766.725622l-250.477696 250.077892c-7.696242 7.696242-20.09019 7.696242-27.786432 0l-139.132065-138.932162c-7.696242-7.696242-7.696242-20.09019 0-27.786433 7.696242-7.696242 20.09019-7.696242 27.786433 0l125.238848 125.038946 236.484529-236.184675c7.696242-7.696242 20.190142-7.696242 27.786432 0 7.796193 7.696242 7.796193 20.190142 0.099951 27.786432zM545.633724 605.504344c54.773255 15.792289 104.948755 41.979502 148.327574 76.362713l-0.499756 0.399805c3.198438 3.498292 5.097511 8.096047 5.097511 13.193558 0 10.89468-8.795705 19.690386-19.690385 19.690385-6.296925 0-11.894192-2.998536-15.492436-7.496339l-0.299853 0.199902C602.206101 661.676916 527.442606 632.691069 445.982382 628.493119c-6.796681 0.399805-13.593363 0.699658-20.489995 0.699658h-0.399805c-6.896633 0-13.693314-0.299854-20.489995-0.699658C223.091215 637.888531 74.66369 770.323865 39.380918 943.539287c0 21.689409 17.59141 39.28082 39.380771 39.28082h334.536652c10.89468 0 19.690386 8.795705 19.690385 19.690386 0 10.89468-8.795705 19.690386-19.690385 19.690385H78.661737c-43.47877 0-78.661591-35.182821-78.661591-78.561639C29.785603 781.318497 148.527623 650.582333 305.151147 605.604295l-0.199902-0.099951h0.399804C191.106833 558.327379 110.64612 445.982235 110.64612 314.846266c0-173.615227 140.931186-314.34651 314.846267-314.34651s314.846266 140.731284 314.846266 314.34651c0 131.135969-80.460713 243.481113-194.704929 290.658078zM425.492387 39.880527c-152.12572 0-275.465495 123.139873-275.465496 275.065691 0 145.129136 112.545046 263.971108 255.175403 274.266081 6.796681-0.299854 13.493411-0.499756 20.290093-0.499756 6.796681 0 13.493411 0.199902 20.290092 0.499756C588.412836 578.817374 700.957882 459.975403 700.957882 314.846266c0-151.825866-123.339776-274.965739-275.465495-274.965739z m105.748365 942.93958c10.89468 0 19.690386 8.795705 19.690385 19.690386 0 10.89468-8.795705 19.690386-19.690385 19.690385-10.89468 0-19.690386-8.795705-19.690386-19.690385 0-10.89468 8.895656-19.690386 19.690386-19.690386z m0 0" fill="#515151" p-id="3586"></path></svg>