<svg t="1689836900735" class="icon" viewBox="0 0 1152 1024" version="1.1" xmlns="http://www.w3.org/2000/svg" p-id="2659" xmlns:xlink="http://www.w3.org/1999/xlink" width="225" height="200"><path d="M768 770.624v-52.768c70.496-39.712 128-138.784 128-237.824 0-159.072 0-288-192-288s-192 128.928-192 288c0 99.072 57.504 198.112 128 237.824v52.768C422.912 788.384 256 895.04 256 1024h896c0-128.96-166.912-235.648-384-253.376z" p-id="2660"></path><path d="M327.2 795.328c55.296-36.16 124.064-63.648 199.776-80.416a362.56 362.56 0 0 1-40.48-59.008c-30.4-55.232-46.496-116.064-46.496-175.904 0-86.048 0-167.296 30.592-233.76 29.696-64.512 83.136-104.48 159.232-119.488C612.896 50.272 567.872 0 448 0 256 0 256 128.928 256 288c0 99.072 57.504 198.112 128 237.824v52.768c-217.088 17.76-384 124.416-384 253.376h279.008c14.528-12.896 30.592-25.184 48.192-36.672z" p-id="2661"></path></svg>
